# WaveFront *.obj file (generated by Autodesk ATF)

mtllib Button Holder.mtl

g Button Holder

v 15.118121 32.000000 22.000000
v 15.123524 32.127209 22.000000
v 15.139697 32.253501 22.000000
v 15.166521 32.377967 22.000000
v 15.203804 32.499710 22.000000
v 15.251278 32.617852 22.000000
v 15.308599 32.731542 22.000000
v 15.375356 32.839962 22.000000
v 15.451067 32.942330 22.000000
v 15.535186 33.037908 22.000000
v 15.627108 33.126008 22.000000
v 15.726171 33.205996 22.000000
v 15.831660 33.277294 22.000000
v 15.942815 33.339389 22.000000
v 16.058836 33.391834 22.000000
v 16.178886 33.434250 22.000000
v 16.302102 33.466333 22.000000
v 16.427594 33.487851 22.000000
v 16.554459 33.498648 22.000000
v 16.681782 33.498648 22.000000
v 16.808647 33.487851 22.000000
v 16.934139 33.466333 22.000000
v 17.057355 33.434250 22.000000
v 17.177405 33.391834 22.000000
v 17.293426 33.339389 22.000000
v 17.404581 33.277294 22.000000
v 17.510070 33.205996 22.000000
v 17.609133 33.126008 22.000000
v 17.701055 33.037908 22.000000
v 17.785174 32.942330 22.000000
v 17.860885 32.839962 22.000000
v 17.927642 32.731542 22.000000
v 17.984963 32.617852 22.000000
v 18.032437 32.499710 22.000000
v 18.069720 32.377967 22.000000
v 18.096544 32.253501 22.000000
v 18.112717 32.127209 22.000000
v 18.118121 32.000000 22.000000
v 18.112717 31.872791 22.000000
v 18.096544 31.746499 22.000000
v 18.069720 31.622033 22.000000
v 18.032437 31.500290 22.000000
v 17.984963 31.382148 22.000000
v 17.927642 31.268458 22.000000
v 17.860885 31.160038 22.000000
v 17.785174 31.057670 22.000000
v 17.701055 30.962092 22.000000
v 17.609133 30.873992 22.000000
v 17.510070 30.794004 22.000000
v 17.404581 30.722706 22.000000
v 17.293426 30.660611 22.000000
v 17.177405 30.608166 22.000000
v 17.057355 30.565750 22.000000
v 16.934139 30.533667 22.000000
v 16.808647 30.512149 22.000000
v 16.681782 30.501352 22.000000
v 16.554459 30.501352 22.000000
v 16.427594 30.512149 22.000000
v 16.302102 30.533667 22.000000
v 16.178886 30.565750 22.000000
v 16.058836 30.608166 22.000000
v 15.942815 30.660611 22.000000
v 15.831660 30.722706 22.000000
v 15.726171 30.794004 22.000000
v 15.627108 30.873992 22.000000
v 15.535186 30.962092 22.000000
v 15.451067 31.057670 22.000000
v 15.375356 31.160038 22.000000
v 15.308599 31.268458 22.000000
v 15.251278 31.382148 22.000000
v 15.203804 31.500290 22.000000
v 15.166521 31.622033 22.000000
v 15.139697 31.746499 22.000000
v 15.123524 31.872791 22.000000
v 15.118121 32.000000 24.000000
v 15.123524 31.872791 24.000000
v 15.139697 31.746499 24.000000
v 15.166521 31.622033 24.000000
v 15.203804 31.500290 24.000000
v 15.251278 31.382148 24.000000
v 15.308599 31.268458 24.000000
v 15.375356 31.160038 24.000000
v 15.451067 31.057670 24.000000
v 15.535186 30.962092 24.000000
v 15.627108 30.873992 24.000000
v 15.726171 30.794004 24.000000
v 15.831660 30.722706 24.000000
v 15.942815 30.660611 24.000000
v 16.058836 30.608166 24.000000
v 16.178886 30.565750 24.000000
v 16.302102 30.533667 24.000000
v 16.427594 30.512149 24.000000
v 16.554459 30.501352 24.000000
v 16.681782 30.501352 24.000000
v 16.808647 30.512149 24.000000
v 16.934139 30.533667 24.000000
v 17.057355 30.565750 24.000000
v 17.177405 30.608166 24.000000
v 17.293426 30.660611 24.000000
v 17.404581 30.722706 24.000000
v 17.510070 30.794004 24.000000
v 17.609133 30.873992 24.000000
v 17.701055 30.962092 24.000000
v 17.785174 31.057670 24.000000
v 17.860885 31.160038 24.000000
v 17.927642 31.268458 24.000000
v 17.984963 31.382148 24.000000
v 18.032437 31.500290 24.000000
v 18.069720 31.622033 24.000000
v 18.096544 31.746499 24.000000
v 18.112717 31.872791 24.000000
v 18.118121 32.000000 24.000000
v 18.112717 32.127209 24.000000
v 18.096544 32.253501 24.000000
v 18.069720 32.377967 24.000000
v 18.032437 32.499710 24.000000
v 17.984963 32.617852 24.000000
v 17.927642 32.731542 24.000000
v 17.860885 32.839962 24.000000
v 17.785174 32.942330 24.000000
v 17.701055 33.037908 24.000000
v 17.609133 33.126008 24.000000
v 17.510070 33.205996 24.000000
v 17.404581 33.277294 24.000000
v 17.293426 33.339389 24.000000
v 17.177405 33.391834 24.000000
v 17.057355 33.434250 24.000000
v 16.934139 33.466333 24.000000
v 16.808647 33.487851 24.000000
v 16.681782 33.498648 24.000000
v 16.554459 33.498648 24.000000
v 16.427594 33.487851 24.000000
v 16.302102 33.466333 24.000000
v 16.178886 33.434250 24.000000
v 16.058836 33.391834 24.000000
v 15.942815 33.339389 24.000000
v 15.831660 33.277294 24.000000
v 15.726171 33.205996 24.000000
v 15.627108 33.126008 24.000000
v 15.535186 33.037908 24.000000
v 15.451067 32.942330 24.000000
v 15.375356 32.839962 24.000000
v 15.308599 32.731542 24.000000
v 15.251278 32.617852 24.000000
v 15.203804 32.499710 24.000000
v 15.166521 32.377967 24.000000
v 15.139697 32.253501 24.000000
v 15.123524 32.127209 24.000000
v 15.500000 12.000000 22.000000
v 15.505404 12.127209 22.000000
v 15.521576 12.253501 22.000000
v 15.548401 12.377967 22.000000
v 15.585684 12.499710 22.000000
v 15.633157 12.617852 22.000000
v 15.690479 12.731542 22.000000
v 15.757236 12.839962 22.000000
v 15.832946 12.942330 22.000000
v 15.917066 13.037908 22.000000
v 16.008988 13.126008 22.000000
v 16.108050 13.205996 22.000000
v 16.213539 13.277294 22.000000
v 16.324694 13.339389 22.000000
v 16.440715 13.391834 22.000000
v 16.560766 13.434250 22.000000
v 16.683981 13.466333 22.000000
v 16.809473 13.487851 22.000000
v 16.936338 13.498648 22.000000
v 17.063662 13.498648 22.000000
v 17.190527 13.487851 22.000000
v 17.316019 13.466333 22.000000
v 17.439234 13.434250 22.000000
v 17.559285 13.391834 22.000000
v 17.675306 13.339389 22.000000
v 17.786461 13.277294 22.000000
v 17.891950 13.205996 22.000000
v 17.991012 13.126008 22.000000
v 18.082934 13.037908 22.000000
v 18.167054 12.942330 22.000000
v 18.242764 12.839962 22.000000
v 18.309521 12.731542 22.000000
v 18.366843 12.617852 22.000000
v 18.414316 12.499710 22.000000
v 18.451599 12.377967 22.000000
v 18.478424 12.253501 22.000000
v 18.494596 12.127209 22.000000
v 18.500000 12.000000 22.000000
v 18.494596 11.872791 22.000000
v 18.478424 11.746499 22.000000
v 18.451599 11.622033 22.000000
v 18.414316 11.500290 22.000000
v 18.366843 11.382148 22.000000
v 18.309521 11.268458 22.000000
v 18.242764 11.160038 22.000000
v 18.167054 11.057670 22.000000
v 18.082934 10.962092 22.000000
v 17.991012 10.873992 22.000000
v 17.891950 10.794004 22.000000
v 17.786461 10.722706 22.000000
v 17.675306 10.660611 22.000000
v 17.559285 10.608166 22.000000
v 17.439234 10.565750 22.000000
v 17.316019 10.533667 22.000000
v 17.190527 10.512149 22.000000
v 17.063662 10.501352 22.000000
v 16.936338 10.501352 22.000000
v 16.809473 10.512149 22.000000
v 16.683981 10.533667 22.000000
v 16.560766 10.565750 22.000000
v 16.440715 10.608166 22.000000
v 16.324694 10.660611 22.000000
v 16.213539 10.722706 22.000000
v 16.108050 10.794004 22.000000
v 16.008988 10.873992 22.000000
v 15.917066 10.962092 22.000000
v 15.832946 11.057670 22.000000
v 15.757236 11.160038 22.000000
v 15.690479 11.268458 22.000000
v 15.633157 11.382148 22.000000
v 15.585684 11.500290 22.000000
v 15.548401 11.622033 22.000000
v 15.521576 11.746499 22.000000
v 15.505404 11.872791 22.000000
v 15.500000 12.000000 24.000000
v 15.505404 11.872791 24.000000
v 15.521576 11.746499 24.000000
v 15.548401 11.622033 24.000000
v 15.585684 11.500290 24.000000
v 15.633157 11.382148 24.000000
v 15.690479 11.268458 24.000000
v 15.757236 11.160038 24.000000
v 15.832946 11.057670 24.000000
v 15.917066 10.962092 24.000000
v 16.008988 10.873992 24.000000
v 16.108050 10.794004 24.000000
v 16.213539 10.722706 24.000000
v 16.324694 10.660611 24.000000
v 16.440715 10.608166 24.000000
v 16.560766 10.565750 24.000000
v 16.683981 10.533667 24.000000
v 16.809473 10.512149 24.000000
v 16.936338 10.501352 24.000000
v 17.063662 10.501352 24.000000
v 17.190527 10.512149 24.000000
v 17.316019 10.533667 24.000000
v 17.439234 10.565750 24.000000
v 17.559285 10.608166 24.000000
v 17.675306 10.660611 24.000000
v 17.786461 10.722706 24.000000
v 17.891950 10.794004 24.000000
v 17.991012 10.873992 24.000000
v 18.082934 10.962092 24.000000
v 18.167054 11.057670 24.000000
v 18.242764 11.160038 24.000000
v 18.309521 11.268458 24.000000
v 18.366843 11.382148 24.000000
v 18.414316 11.500290 24.000000
v 18.451599 11.622033 24.000000
v 18.478424 11.746499 24.000000
v 18.494596 11.872791 24.000000
v 18.500000 12.000000 24.000000
v 18.494596 12.127209 24.000000
v 18.478424 12.253501 24.000000
v 18.451599 12.377967 24.000000
v 18.414316 12.499710 24.000000
v 18.366843 12.617852 24.000000
v 18.309521 12.731542 24.000000
v 18.242764 12.839962 24.000000
v 18.167054 12.942330 24.000000
v 18.082934 13.037908 24.000000
v 17.991012 13.126008 24.000000
v 17.891950 13.205996 24.000000
v 17.786461 13.277294 24.000000
v 17.675306 13.339389 24.000000
v 17.559285 13.391834 24.000000
v 17.439234 13.434250 24.000000
v 17.316019 13.466333 24.000000
v 17.190527 13.487851 24.000000
v 17.063662 13.498648 24.000000
v 16.936338 13.498648 24.000000
v 16.809473 13.487851 24.000000
v 16.683981 13.466333 24.000000
v 16.560766 13.434250 24.000000
v 16.440715 13.391834 24.000000
v 16.324694 13.339389 24.000000
v 16.213539 13.277294 24.000000
v 16.108050 13.205996 24.000000
v 16.008988 13.126008 24.000000
v 15.917066 13.037908 24.000000
v 15.832946 12.942330 24.000000
v 15.757236 12.839962 24.000000
v 15.690479 12.731542 24.000000
v 15.633157 12.617852 24.000000
v 15.585684 12.499710 24.000000
v 15.548401 12.377967 24.000000
v 15.521576 12.253501 24.000000
v 15.505404 12.127209 24.000000
v 13.500000 35.000000 24.000000
v 20.500000 35.000000 24.000000
v 20.500000 35.000000 22.000000
v 13.500000 35.000000 22.000000
v 13.500000 9.000000 24.000000
v 13.500000 9.000000 22.000000
v 20.500000 9.000000 24.000000
v 20.500000 9.000000 22.000000
vt 0.200000 -0.458503 0.000000
vt -0.000000 -0.458503 0.000000
vt 0.200000 -0.471239 0.000000
vt 0.000000 -0.471239 0.000000
vt 0.200000 0.471239 0.000000
vt 0.000000 0.471239 0.000000
vt 0.200000 0.458503 0.000000
vt -0.000000 0.458503 0.000000
vt 0.200000 0.445767 0.000000
vt -0.000000 0.445767 0.000000
vt 0.200000 0.433030 0.000000
vt -0.000000 0.433030 0.000000
vt 0.200000 0.420294 0.000000
vt -0.000000 0.420294 0.000000
vt 0.200000 0.407558 0.000000
vt -0.000000 0.407558 0.000000
vt 0.200000 0.394822 0.000000
vt -0.000000 0.394822 0.000000
vt 0.200000 0.382086 0.000000
vt -0.000000 0.382086 0.000000
vt 0.200000 0.369349 0.000000
vt -0.000000 0.369349 0.000000
vt 0.200000 0.356613 0.000000
vt -0.000000 0.356613 0.000000
vt 0.200000 0.343877 0.000000
vt -0.000000 0.343877 0.000000
vt 0.200000 0.331141 0.000000
vt -0.000000 0.331141 0.000000
vt 0.200000 0.318405 0.000000
vt -0.000000 0.318405 0.000000
vt 0.200000 0.305668 0.000000
vt -0.000000 0.305668 0.000000
vt 0.200000 0.292932 0.000000
vt -0.000000 0.292932 0.000000
vt 0.200000 0.280196 0.000000
vt -0.000000 0.280196 0.000000
vt 0.200000 0.267460 0.000000
vt -0.000000 0.267460 0.000000
vt 0.200000 0.254724 0.000000
vt -0.000000 0.254724 0.000000
vt 0.200000 0.241988 0.000000
vt -0.000000 0.241988 0.000000
vt 0.200000 0.229251 0.000000
vt -0.000000 0.229251 0.000000
vt 0.200000 0.216515 0.000000
vt 0.000000 0.216515 0.000000
vt 0.200000 0.203779 0.000000
vt 0.000000 0.203779 0.000000
vt 0.200000 0.191043 0.000000
vt 0.000000 0.191043 0.000000
vt 0.200000 0.178307 0.000000
vt -0.000000 0.178307 0.000000
vt 0.200000 0.165570 0.000000
vt -0.000000 0.165570 0.000000
vt 0.200000 0.152834 0.000000
vt 0.000000 0.152834 0.000000
vt 0.200000 0.140098 0.000000
vt -0.000000 0.140098 0.000000
vt 0.200000 0.127362 0.000000
vt 0.000000 0.127362 0.000000
vt 0.200000 0.114626 0.000000
vt -0.000000 0.114626 0.000000
vt 0.200000 0.101889 0.000000
vt -0.000000 0.101889 0.000000
vt 0.200000 0.089153 0.000000
vt -0.000000 0.089153 0.000000
vt 0.200000 0.076417 0.000000
vt 0.000000 0.076417 0.000000
vt 0.200000 0.063681 0.000000
vt -0.000000 0.063681 0.000000
vt 0.200000 0.050945 0.000000
vt 0.000000 0.050945 0.000000
vt 0.200000 0.038209 0.000000
vt 0.000000 0.038209 0.000000
vt 0.200000 0.025472 0.000000
vt 0.000000 0.025472 0.000000
vt 0.200000 0.012736 0.000000
vt -0.000000 0.012736 0.000000
vt 0.200000 0.000000 0.000000
vt 0.000000 0.000000 0.000000
vt 0.200000 -0.012736 0.000000
vt -0.000000 -0.012736 0.000000
vt 0.200000 -0.025472 0.000000
vt 0.000000 -0.025472 0.000000
vt 0.200000 -0.038209 0.000000
vt 0.000000 -0.038209 0.000000
vt 0.200000 -0.050945 0.000000
vt 0.000000 -0.050945 0.000000
vt 0.200000 -0.063681 0.000000
vt -0.000000 -0.063681 0.000000
vt 0.200000 -0.076417 0.000000
vt 0.000000 -0.076417 0.000000
vt 0.200000 -0.089153 0.000000
vt -0.000000 -0.089153 0.000000
vt 0.200000 -0.101889 0.000000
vt -0.000000 -0.101889 0.000000
vt 0.200000 -0.114626 0.000000
vt -0.000000 -0.114626 0.000000
vt 0.200000 -0.127362 0.000000
vt 0.000000 -0.127362 0.000000
vt 0.200000 -0.140098 0.000000
vt 0.000000 -0.140098 0.000000
vt 0.200000 -0.152834 0.000000
vt 0.000000 -0.152834 0.000000
vt 0.200000 -0.165570 0.000000
vt -0.000000 -0.165570 0.000000
vt 0.200000 -0.178307 0.000000
vt -0.000000 -0.178307 0.000000
vt 0.200000 -0.191043 0.000000
vt 0.000000 -0.191043 0.000000
vt 0.200000 -0.203779 0.000000
vt 0.000000 -0.203779 0.000000
vt 0.200000 -0.216515 0.000000
vt 0.000000 -0.216515 0.000000
vt 0.200000 -0.229251 0.000000
vt -0.000000 -0.229251 0.000000
vt 0.200000 -0.241988 0.000000
vt -0.000000 -0.241988 0.000000
vt 0.200000 -0.254724 0.000000
vt 0.000000 -0.254724 0.000000
vt 0.200000 -0.267460 0.000000
vt -0.000000 -0.267460 0.000000
vt 0.200000 -0.280196 0.000000
vt 0.000000 -0.280196 0.000000
vt 0.200000 -0.292932 0.000000
vt -0.000000 -0.292932 0.000000
vt 0.200000 -0.305668 0.000000
vt -0.000000 -0.305668 0.000000
vt 0.200000 -0.318405 0.000000
vt 0.000000 -0.318405 0.000000
vt 0.200000 -0.331141 0.000000
vt 0.000000 -0.331141 0.000000
vt 0.200000 -0.343877 0.000000
vt 0.000000 -0.343877 0.000000
vt 0.200000 -0.356613 0.000000
vt -0.000000 -0.356613 0.000000
vt 0.200000 -0.369349 0.000000
vt -0.000000 -0.369349 0.000000
vt 0.200000 -0.382086 0.000000
vt -0.000000 -0.382086 0.000000
vt 0.200000 -0.394822 0.000000
vt 0.000000 -0.394822 0.000000
vt 0.200000 -0.407558 0.000000
vt -0.000000 -0.407558 0.000000
vt 0.200000 -0.420294 0.000000
vt 0.000000 -0.420294 0.000000
vt 0.200000 -0.433030 0.000000
vt 0.000000 -0.433030 0.000000
vt 0.200000 -0.445767 0.000000
vt 0.000000 -0.445767 0.000000
vt 0.200000 -0.458503 0.000000
vt -0.000000 -0.458503 0.000000
vt 0.200000 -0.471239 0.000000
vt 0.000000 -0.471239 0.000000
vt 0.200000 0.471239 0.000000
vt 0.000000 0.471239 0.000000
vt 0.200000 0.458503 0.000000
vt -0.000000 0.458503 0.000000
vt 0.200000 0.445767 0.000000
vt -0.000000 0.445767 0.000000
vt 0.200000 0.433030 0.000000
vt -0.000000 0.433030 0.000000
vt 0.200000 0.420294 0.000000
vt -0.000000 0.420294 0.000000
vt 0.200000 0.407558 0.000000
vt -0.000000 0.407558 0.000000
vt 0.200000 0.394822 0.000000
vt -0.000000 0.394822 0.000000
vt 0.200000 0.382086 0.000000
vt -0.000000 0.382086 0.000000
vt 0.200000 0.369349 0.000000
vt -0.000000 0.369349 0.000000
vt 0.200000 0.356613 0.000000
vt -0.000000 0.356613 0.000000
vt 0.200000 0.343877 0.000000
vt -0.000000 0.343877 0.000000
vt 0.200000 0.331141 0.000000
vt -0.000000 0.331141 0.000000
vt 0.200000 0.318405 0.000000
vt -0.000000 0.318405 0.000000
vt 0.200000 0.305668 0.000000
vt -0.000000 0.305668 0.000000
vt 0.200000 0.292932 0.000000
vt -0.000000 0.292932 0.000000
vt 0.200000 0.280196 0.000000
vt -0.000000 0.280196 0.000000
vt 0.200000 0.267460 0.000000
vt -0.000000 0.267460 0.000000
vt 0.200000 0.254724 0.000000
vt -0.000000 0.254724 0.000000
vt 0.200000 0.241988 0.000000
vt -0.000000 0.241988 0.000000
vt 0.200000 0.229251 0.000000
vt 0.000000 0.229251 0.000000
vt 0.200000 0.216515 0.000000
vt 0.000000 0.216515 0.000000
vt 0.200000 0.203779 0.000000
vt -0.000000 0.203779 0.000000
vt 0.200000 0.191043 0.000000
vt -0.000000 0.191043 0.000000
vt 0.200000 0.178307 0.000000
vt 0.000000 0.178307 0.000000
vt 0.200000 0.165570 0.000000
vt -0.000000 0.165570 0.000000
vt 0.200000 0.152834 0.000000
vt 0.000000 0.152834 0.000000
vt 0.200000 0.140098 0.000000
vt 0.000000 0.140098 0.000000
vt 0.200000 0.127362 0.000000
vt 0.000000 0.127362 0.000000
vt 0.200000 0.114626 0.000000
vt 0.000000 0.114626 0.000000
vt 0.200000 0.101889 0.000000
vt -0.000000 0.101889 0.000000
vt 0.200000 0.089153 0.000000
vt 0.000000 0.089153 0.000000
vt 0.200000 0.076417 0.000000
vt 0.000000 0.076417 0.000000
vt 0.200000 0.063681 0.000000
vt -0.000000 0.063681 0.000000
vt 0.200000 0.050945 0.000000
vt 0.000000 0.050945 0.000000
vt 0.200000 0.038209 0.000000
vt 0.000000 0.038209 0.000000
vt 0.200000 0.025472 0.000000
vt 0.000000 0.025472 0.000000
vt 0.200000 0.012736 0.000000
vt -0.000000 0.012736 0.000000
vt 0.200000 0.000000 0.000000
vt 0.000000 0.000000 0.000000
vt 0.200000 -0.012736 0.000000
vt -0.000000 -0.012736 0.000000
vt 0.200000 -0.025472 0.000000
vt 0.000000 -0.025472 0.000000
vt 0.200000 -0.038209 0.000000
vt 0.000000 -0.038209 0.000000
vt 0.200000 -0.050945 0.000000
vt 0.000000 -0.050945 0.000000
vt 0.200000 -0.063681 0.000000
vt -0.000000 -0.063681 0.000000
vt 0.200000 -0.076417 0.000000
vt 0.000000 -0.076417 0.000000
vt 0.200000 -0.089153 0.000000
vt 0.000000 -0.089153 0.000000
vt 0.200000 -0.101889 0.000000
vt 0.000000 -0.101889 0.000000
vt 0.200000 -0.114626 0.000000
vt 0.000000 -0.114626 0.000000
vt 0.200000 -0.127362 0.000000
vt -0.000000 -0.127362 0.000000
vt 0.200000 -0.140098 0.000000
vt 0.000000 -0.140098 0.000000
vt 0.200000 -0.152834 0.000000
vt -0.000000 -0.152834 0.000000
vt 0.200000 -0.165570 0.000000
vt -0.000000 -0.165570 0.000000
vt 0.200000 -0.178307 0.000000
vt 0.000000 -0.178307 0.000000
vt 0.200000 -0.191043 0.000000
vt -0.000000 -0.191043 0.000000
vt 0.200000 -0.203779 0.000000
vt 0.000000 -0.203779 0.000000
vt 0.200000 -0.216515 0.000000
vt 0.000000 -0.216515 0.000000
vt 0.200000 -0.229251 0.000000
vt 0.000000 -0.229251 0.000000
vt 0.200000 -0.241988 0.000000
vt 0.000000 -0.241988 0.000000
vt 0.200000 -0.254724 0.000000
vt 0.000000 -0.254724 0.000000
vt 0.200000 -0.267460 0.000000
vt 0.000000 -0.267460 0.000000
vt 0.200000 -0.280196 0.000000
vt -0.000000 -0.280196 0.000000
vt 0.200000 -0.292932 0.000000
vt 0.000000 -0.292932 0.000000
vt 0.200000 -0.305668 0.000000
vt -0.000000 -0.305668 0.000000
vt 0.200000 -0.318405 0.000000
vt -0.000000 -0.318405 0.000000
vt 0.200000 -0.331141 0.000000
vt 0.000000 -0.331141 0.000000
vt 0.200000 -0.343877 0.000000
vt -0.000000 -0.343877 0.000000
vt 0.200000 -0.356613 0.000000
vt 0.000000 -0.356613 0.000000
vt 0.200000 -0.369349 0.000000
vt -0.000000 -0.369349 0.000000
vt 0.200000 -0.382086 0.000000
vt -0.000000 -0.382086 0.000000
vt 0.200000 -0.394822 0.000000
vt 0.000000 -0.394822 0.000000
vt 0.200000 -0.407558 0.000000
vt -0.000000 -0.407558 0.000000
vt 0.200000 -0.420294 0.000000
vt 0.000000 -0.420294 0.000000
vt 0.200000 -0.433030 0.000000
vt 0.000000 -0.433030 0.000000
vt 0.200000 -0.445767 0.000000
vt 0.000000 -0.445767 0.000000
vt 0.000000 0.000000 0.000000
vt 0.700000 0.000000 0.000000
vt 0.000000 0.200000 0.000000
vt 0.700000 0.200000 0.000000
vt 0.000000 0.000000 0.000000
vt 2.600000 0.000000 0.000000
vt 0.000000 0.200000 0.000000
vt 2.600000 0.200000 0.000000
vt -0.000000 0.000000 0.000000
vt 0.700000 0.000000 0.000000
vt 0.000000 0.200000 0.000000
vt 0.700000 0.200000 0.000000
vt -0.000000 0.000000 0.000000
vt 2.600000 0.000000 0.000000
vt 0.000000 0.200000 0.000000
vt 2.600000 0.200000 0.000000
vt -0.350000 -1.300000 0.000000
vt -0.145160 -0.962203 0.000000
vt -0.350000 1.300000 0.000000
vt -0.141432 -0.950029 0.000000
vt -0.106972 0.962203 0.000000
vt -0.136684 -0.938215 0.000000
vt -0.103244 0.950029 0.000000
vt -0.130952 -0.926846 0.000000
vt -0.098496 0.938215 0.000000
vt -0.124276 -0.916004 0.000000
vt -0.092764 0.926846 0.000000
vt -0.116705 -0.905767 0.000000
vt -0.086088 0.916004 0.000000
vt -0.108293 -0.896209 0.000000
vt -0.078517 0.905767 0.000000
vt -0.099101 -0.887399 0.000000
vt -0.070105 0.896209 0.000000
vt -0.089195 -0.879400 0.000000
vt -0.078646 -0.872271 0.000000
vt 0.350000 -1.300000 0.000000
vt -0.006366 -1.149865 0.000000
vt -0.019053 -1.148785 0.000000
vt -0.031602 -1.146633 0.000000
vt 0.350000 1.300000 0.000000
vt 0.183348 0.962203 0.000000
vt 0.179620 0.950029 0.000000
vt 0.145160 -0.962203 0.000000
vt 0.174872 0.938215 0.000000
vt 0.141432 -0.950029 0.000000
vt 0.169140 0.926846 0.000000
vt 0.136684 -0.938215 0.000000
vt 0.162464 0.916004 0.000000
vt 0.130952 -0.926846 0.000000
vt 0.154893 0.905767 0.000000
vt 0.124276 -0.916004 0.000000
vt 0.146481 0.896209 0.000000
vt 0.116705 -0.905767 0.000000
vt 0.137289 0.887399 0.000000
vt 0.108293 -0.896209 0.000000
vt 0.127383 0.879400 0.000000
vt 0.116834 0.872271 0.000000
vt 0.031822 1.149865 0.000000
vt 0.044554 1.149865 0.000000
vt 0.057241 1.148785 0.000000
vt 0.149460 -0.987279 0.000000
vt 0.150000 -1.000000 0.000000
vt 0.149460 -1.012721 0.000000
vt 0.147842 -1.025350 0.000000
vt 0.145160 -1.037797 0.000000
vt 0.141432 -1.049971 0.000000
vt 0.136684 -1.061785 0.000000
vt 0.130952 -1.073154 0.000000
vt 0.124276 -1.083996 0.000000
vt 0.116705 -1.094233 0.000000
vt 0.108293 -1.103791 0.000000
vt 0.099101 -1.112601 0.000000
vt 0.089195 -1.120600 0.000000
vt 0.078646 -1.127729 0.000000
vt 0.067531 -1.133939 0.000000
vt 0.055928 -1.139183 0.000000
vt 0.043923 -1.143425 0.000000
vt 0.031602 -1.146633 0.000000
vt 0.019053 -1.148785 0.000000
vt 0.006366 -1.149865 0.000000
vt -0.043923 -1.143425 0.000000
vt -0.055928 -1.139183 0.000000
vt -0.067531 -1.133939 0.000000
vt -0.078646 -1.127729 0.000000
vt -0.089195 -1.120600 0.000000
vt -0.099101 -1.112601 0.000000
vt -0.108293 -1.103791 0.000000
vt -0.116705 -1.094233 0.000000
vt -0.124276 -1.083996 0.000000
vt -0.130952 -1.073154 0.000000
vt -0.136684 -1.061785 0.000000
vt -0.141432 -1.049971 0.000000
vt -0.145160 -1.037797 0.000000
vt -0.147842 -1.025350 0.000000
vt -0.149460 -1.012721 0.000000
vt -0.150000 -1.000000 0.000000
vt -0.149460 -0.987279 0.000000
vt -0.147842 -0.974650 0.000000
vt -0.060913 0.887399 0.000000
vt -0.067531 -0.866061 0.000000
vt -0.051007 0.879400 0.000000
vt -0.055928 -0.860817 0.000000
vt -0.040458 0.872271 0.000000
vt -0.043923 -0.856575 0.000000
vt -0.029343 0.866061 0.000000
vt -0.031602 -0.853367 0.000000
vt -0.017741 0.860817 0.000000
vt -0.019053 -0.851215 0.000000
vt -0.005735 0.856575 0.000000
vt -0.006366 -0.850135 0.000000
vt 0.006586 0.853367 0.000000
vt 0.006366 -0.850135 0.000000
vt 0.019135 0.851215 0.000000
vt 0.019053 -0.851215 0.000000
vt 0.031822 0.850135 0.000000
vt 0.031602 -0.853367 0.000000
vt 0.044554 0.850135 0.000000
vt 0.043923 -0.856575 0.000000
vt 0.057241 0.851215 0.000000
vt 0.055928 -0.860817 0.000000
vt 0.069790 0.853367 0.000000
vt 0.067531 -0.866061 0.000000
vt 0.082111 0.856575 0.000000
vt 0.078646 -0.872271 0.000000
vt 0.094116 0.860817 0.000000
vt 0.089195 -0.879400 0.000000
vt 0.105719 0.866061 0.000000
vt 0.099101 -0.887399 0.000000
vt 0.147842 -0.974650 0.000000
vt 0.187648 1.012721 0.000000
vt 0.188188 1.000000 0.000000
vt 0.187648 0.987279 0.000000
vt 0.186030 0.974650 0.000000
vt -0.109654 0.974650 0.000000
vt -0.111272 0.987279 0.000000
vt -0.111812 1.000000 0.000000
vt -0.111272 1.012721 0.000000
vt -0.109654 1.025350 0.000000
vt -0.106972 1.037797 0.000000
vt -0.103244 1.049971 0.000000
vt -0.098496 1.061785 0.000000
vt -0.092764 1.073154 0.000000
vt -0.086088 1.083996 0.000000
vt -0.078517 1.094233 0.000000
vt -0.070105 1.103791 0.000000
vt -0.060913 1.112601 0.000000
vt -0.051007 1.120600 0.000000
vt -0.040458 1.127729 0.000000
vt -0.029343 1.133939 0.000000
vt -0.017741 1.139183 0.000000
vt -0.005735 1.143425 0.000000
vt 0.006586 1.146633 0.000000
vt 0.019135 1.148785 0.000000
vt 0.069790 1.146633 0.000000
vt 0.082111 1.143425 0.000000
vt 0.094116 1.139183 0.000000
vt 0.105719 1.133939 0.000000
vt 0.116834 1.127729 0.000000
vt 0.127383 1.120600 0.000000
vt 0.137289 1.112601 0.000000
vt 0.146481 1.103791 0.000000
vt 0.154893 1.094233 0.000000
vt 0.162464 1.083996 0.000000
vt 0.169140 1.073154 0.000000
vt 0.174872 1.061785 0.000000
vt 0.179620 1.049971 0.000000
vt 0.183348 1.037797 0.000000
vt 0.186030 1.025350 0.000000
vt 0.350000 1.300000 0.000000
vt 0.145160 -0.962203 0.000000
vt 0.350000 -1.300000 0.000000
vt 0.147842 -0.974650 0.000000
vt 0.149460 -0.987279 0.000000
vt -0.350000 1.300000 0.000000
vt -0.031822 1.149865 0.000000
vt -0.019135 1.148785 0.000000
vt -0.006586 1.146633 0.000000
vt -0.350000 -1.300000 0.000000
vt -0.183348 0.962203 0.000000
vt -0.186030 0.974650 0.000000
vt -0.187648 0.987279 0.000000
vt -0.006366 -1.149865 0.000000
vt -0.019053 -1.148785 0.000000
vt -0.031602 -1.146633 0.000000
vt -0.149460 -1.012721 0.000000
vt -0.150000 -1.000000 0.000000
vt -0.149460 -0.987279 0.000000
vt -0.147842 -0.974650 0.000000
vt -0.145160 -0.962203 0.000000
vt -0.179620 0.950029 0.000000
vt -0.174872 0.938215 0.000000
vt -0.141432 -0.950029 0.000000
vt -0.169140 0.926846 0.000000
vt -0.136684 -0.938215 0.000000
vt -0.162464 0.916004 0.000000
vt -0.130952 -0.926846 0.000000
vt -0.154893 0.905767 0.000000
vt -0.124276 -0.916004 0.000000
vt -0.146481 0.896209 0.000000
vt -0.116705 -0.905767 0.000000
vt -0.137289 0.887399 0.000000
vt -0.108293 -0.896209 0.000000
vt -0.127383 0.879400 0.000000
vt -0.116834 0.872271 0.000000
vt -0.099101 -0.887399 0.000000
vt -0.105719 0.866061 0.000000
vt -0.089195 -0.879400 0.000000
vt -0.094116 0.860817 0.000000
vt -0.078646 -0.872271 0.000000
vt -0.082111 0.856575 0.000000
vt -0.067531 -0.866061 0.000000
vt -0.069790 0.853367 0.000000
vt -0.055928 -0.860817 0.000000
vt -0.057241 0.851215 0.000000
vt -0.043923 -0.856575 0.000000
vt -0.044554 0.850135 0.000000
vt -0.031602 -0.853367 0.000000
vt -0.031822 0.850135 0.000000
vt -0.019053 -0.851215 0.000000
vt -0.019135 0.851215 0.000000
vt -0.006366 -0.850135 0.000000
vt -0.006586 0.853367 0.000000
vt 0.006366 -0.850135 0.000000
vt 0.005735 0.856575 0.000000
vt 0.019053 -0.851215 0.000000
vt 0.017741 0.860817 0.000000
vt 0.031602 -0.853367 0.000000
vt 0.029343 0.866061 0.000000
vt 0.043923 -0.856575 0.000000
vt 0.040458 0.872271 0.000000
vt 0.055928 -0.860817 0.000000
vt 0.051007 0.879400 0.000000
vt 0.067531 -0.866061 0.000000
vt 0.060913 0.887399 0.000000
vt 0.078646 -0.872271 0.000000
vt 0.070105 0.896209 0.000000
vt 0.089195 -0.879400 0.000000
vt 0.099101 -0.887399 0.000000
vt 0.078517 0.905767 0.000000
vt 0.108293 -0.896209 0.000000
vt 0.086088 0.916004 0.000000
vt 0.116705 -0.905767 0.000000
vt 0.092764 0.926846 0.000000
vt 0.124276 -0.916004 0.000000
vt 0.098496 0.938215 0.000000
vt 0.130952 -0.926846 0.000000
vt 0.103244 0.950029 0.000000
vt 0.136684 -0.938215 0.000000
vt 0.106972 0.962203 0.000000
vt 0.141432 -0.950029 0.000000
vt 0.150000 -1.000000 0.000000
vt 0.149460 -1.012721 0.000000
vt 0.147842 -1.025350 0.000000
vt 0.145160 -1.037797 0.000000
vt 0.141432 -1.049971 0.000000
vt 0.136684 -1.061785 0.000000
vt 0.130952 -1.073154 0.000000
vt 0.124276 -1.083996 0.000000
vt 0.116705 -1.094233 0.000000
vt 0.108293 -1.103791 0.000000
vt 0.099101 -1.112601 0.000000
vt 0.089195 -1.120600 0.000000
vt 0.078646 -1.127729 0.000000
vt 0.067531 -1.133939 0.000000
vt 0.055928 -1.139183 0.000000
vt 0.043923 -1.143425 0.000000
vt 0.031602 -1.146633 0.000000
vt 0.019053 -1.148785 0.000000
vt 0.006366 -1.149865 0.000000
vt -0.043923 -1.143425 0.000000
vt -0.055928 -1.139183 0.000000
vt -0.067531 -1.133939 0.000000
vt -0.078646 -1.127729 0.000000
vt -0.089195 -1.120600 0.000000
vt -0.099101 -1.112601 0.000000
vt -0.108293 -1.103791 0.000000
vt -0.116705 -1.094233 0.000000
vt -0.124276 -1.083996 0.000000
vt -0.130952 -1.073154 0.000000
vt -0.136684 -1.061785 0.000000
vt -0.141432 -1.049971 0.000000
vt -0.145160 -1.037797 0.000000
vt -0.147842 -1.025350 0.000000
vt -0.188188 1.000000 0.000000
vt -0.187648 1.012721 0.000000
vt -0.186030 1.025350 0.000000
vt -0.183348 1.037797 0.000000
vt -0.179620 1.049971 0.000000
vt -0.174872 1.061785 0.000000
vt -0.169140 1.073154 0.000000
vt -0.162464 1.083996 0.000000
vt -0.154893 1.094233 0.000000
vt -0.146481 1.103791 0.000000
vt -0.137289 1.112601 0.000000
vt -0.127383 1.120600 0.000000
vt -0.116834 1.127729 0.000000
vt -0.105719 1.133939 0.000000
vt -0.094116 1.139183 0.000000
vt -0.082111 1.143425 0.000000
vt -0.069790 1.146633 0.000000
vt -0.057241 1.148785 0.000000
vt -0.044554 1.149865 0.000000
vt 0.005735 1.143425 0.000000
vt 0.017741 1.139183 0.000000
vt 0.029343 1.133939 0.000000
vt 0.040458 1.127729 0.000000
vt 0.051007 1.120600 0.000000
vt 0.060913 1.112601 0.000000
vt 0.070105 1.103791 0.000000
vt 0.078517 1.094233 0.000000
vt 0.086088 1.083996 0.000000
vt 0.092764 1.073154 0.000000
vt 0.098496 1.061785 0.000000
vt 0.103244 1.049971 0.000000
vt 0.106972 1.037797 0.000000
vt 0.109654 1.025350 0.000000
vt 0.111272 1.012721 0.000000
vt 0.111812 1.000000 0.000000
vt 0.111272 0.987279 0.000000
vt 0.109654 0.974650 0.000000
vn 0.099640 -0.008481 0.000000
vn 0.099640 -0.008481 0.000000
vn 0.100000 -0.000000 0.000000
vn 0.100000 -0.000000 0.000000
vn 0.099640 0.008481 0.000000
vn 0.099640 0.008481 0.000000
vn 0.098562 0.016900 0.000000
vn 0.098562 0.016900 0.000000
vn 0.096773 0.025198 0.000000
vn 0.096773 0.025198 0.000000
vn 0.094288 0.033314 0.000000
vn 0.094288 0.033314 0.000000
vn 0.091123 0.041190 0.000000
vn 0.091123 0.041190 0.000000
vn 0.087301 0.048769 0.000000
vn 0.087301 0.048769 0.000000
vn 0.082851 0.055997 0.000000
vn 0.082851 0.055997 0.000000
vn 0.077804 0.062822 0.000000
vn 0.077804 0.062822 0.000000
vn 0.072196 0.069194 0.000000
vn 0.072196 0.069194 0.000000
vn 0.066067 0.075067 0.000000
vn 0.066067 0.075067 0.000000
vn 0.059463 0.080400 0.000000
vn 0.059463 0.080400 0.000000
vn 0.052431 0.085153 0.000000
vn 0.052431 0.085153 0.000000
vn 0.045020 0.089293 0.000000
vn 0.045020 0.089293 0.000000
vn 0.037286 0.092789 0.000000
vn 0.037286 0.092789 0.000000
vn 0.029282 0.095617 0.000000
vn 0.029282 0.095617 0.000000
vn 0.021068 0.097756 0.000000
vn 0.021068 0.097756 0.000000
vn 0.012702 0.099190 0.000000
vn 0.012702 0.099190 0.000000
vn 0.004244 0.099910 0.000000
vn 0.004244 0.099910 0.000000
vn -0.004244 0.099910 0.000000
vn -0.004244 0.099910 0.000000
vn -0.012702 0.099190 0.000000
vn -0.012702 0.099190 0.000000
vn -0.021068 0.097756 0.000000
vn -0.021068 0.097756 0.000000
vn -0.029282 0.095617 0.000000
vn -0.029282 0.095617 0.000000
vn -0.037286 0.092789 0.000000
vn -0.037286 0.092789 0.000000
vn -0.045020 0.089293 0.000000
vn -0.045020 0.089293 0.000000
vn -0.052431 0.085153 0.000000
vn -0.052431 0.085153 0.000000
vn -0.059463 0.080400 0.000000
vn -0.059463 0.080400 0.000000
vn -0.066067 0.075067 0.000000
vn -0.066067 0.075067 0.000000
vn -0.072196 0.069194 0.000000
vn -0.072196 0.069194 0.000000
vn -0.077804 0.062822 0.000000
vn -0.077804 0.062822 0.000000
vn -0.082851 0.055997 0.000000
vn -0.082851 0.055997 0.000000
vn -0.087301 0.048769 0.000000
vn -0.087301 0.048769 0.000000
vn -0.091123 0.041190 0.000000
vn -0.091123 0.041190 0.000000
vn -0.094288 0.033314 0.000000
vn -0.094288 0.033314 0.000000
vn -0.096773 0.025198 0.000000
vn -0.096773 0.025198 0.000000
vn -0.098562 0.016900 0.000000
vn -0.098562 0.016900 0.000000
vn -0.099640 0.008481 0.000000
vn -0.099640 0.008481 0.000000
vn -0.100000 0.000000 0.000000
vn -0.100000 0.000000 0.000000
vn -0.099640 -0.008481 0.000000
vn -0.099640 -0.008481 0.000000
vn -0.098562 -0.016900 0.000000
vn -0.098562 -0.016900 0.000000
vn -0.096773 -0.025198 0.000000
vn -0.096773 -0.025198 0.000000
vn -0.094288 -0.033314 0.000000
vn -0.094288 -0.033314 0.000000
vn -0.091123 -0.041190 0.000000
vn -0.091123 -0.041190 0.000000
vn -0.087301 -0.048769 0.000000
vn -0.087301 -0.048769 0.000000
vn -0.082851 -0.055997 0.000000
vn -0.082851 -0.055997 0.000000
vn -0.077804 -0.062822 0.000000
vn -0.077804 -0.062822 0.000000
vn -0.072196 -0.069194 0.000000
vn -0.072196 -0.069194 0.000000
vn -0.066067 -0.075067 0.000000
vn -0.066067 -0.075067 0.000000
vn -0.059463 -0.080400 0.000000
vn -0.059463 -0.080400 0.000000
vn -0.052431 -0.085153 0.000000
vn -0.052431 -0.085153 0.000000
vn -0.045020 -0.089293 0.000000
vn -0.045020 -0.089293 0.000000
vn -0.037286 -0.092789 0.000000
vn -0.037286 -0.092789 0.000000
vn -0.029282 -0.095617 0.000000
vn -0.029282 -0.095617 0.000000
vn -0.021068 -0.097756 0.000000
vn -0.021068 -0.097756 0.000000
vn -0.012702 -0.099190 0.000000
vn -0.012702 -0.099190 0.000000
vn -0.004244 -0.099910 0.000000
vn -0.004244 -0.099910 0.000000
vn 0.004244 -0.099910 0.000000
vn 0.004244 -0.099910 0.000000
vn 0.012702 -0.099190 0.000000
vn 0.012702 -0.099190 0.000000
vn 0.021068 -0.097756 0.000000
vn 0.021068 -0.097756 0.000000
vn 0.029282 -0.095617 0.000000
vn 0.029282 -0.095617 0.000000
vn 0.037286 -0.092789 0.000000
vn 0.037286 -0.092789 0.000000
vn 0.045020 -0.089293 0.000000
vn 0.045020 -0.089293 0.000000
vn 0.052431 -0.085153 0.000000
vn 0.052431 -0.085153 0.000000
vn 0.059463 -0.080400 0.000000
vn 0.059463 -0.080400 0.000000
vn 0.066067 -0.075067 0.000000
vn 0.066067 -0.075067 0.000000
vn 0.072196 -0.069194 0.000000
vn 0.072196 -0.069194 0.000000
vn 0.077804 -0.062822 0.000000
vn 0.077804 -0.062822 0.000000
vn 0.082851 -0.055997 0.000000
vn 0.082851 -0.055997 0.000000
vn 0.087301 -0.048769 0.000000
vn 0.087301 -0.048769 0.000000
vn 0.091123 -0.041190 0.000000
vn 0.091123 -0.041190 0.000000
vn 0.094288 -0.033314 0.000000
vn 0.094288 -0.033314 0.000000
vn 0.096773 -0.025198 0.000000
vn 0.096773 -0.025198 0.000000
vn 0.098562 -0.016900 0.000000
vn 0.098562 -0.016900 0.000000
vn 0.099640 -0.008481 0.000000
vn 0.099640 -0.008481 0.000000
vn 0.100000 -0.000000 0.000000
vn 0.100000 -0.000000 0.000000
vn 0.099640 0.008481 0.000000
vn 0.099640 0.008481 0.000000
vn 0.098562 0.016900 0.000000
vn 0.098562 0.016900 0.000000
vn 0.096773 0.025198 0.000000
vn 0.096773 0.025198 0.000000
vn 0.094288 0.033314 0.000000
vn 0.094288 0.033314 0.000000
vn 0.091123 0.041190 0.000000
vn 0.091123 0.041190 0.000000
vn 0.087301 0.048769 0.000000
vn 0.087301 0.048769 0.000000
vn 0.082851 0.055997 0.000000
vn 0.082851 0.055997 0.000000
vn 0.077804 0.062822 0.000000
vn 0.077804 0.062822 0.000000
vn 0.072196 0.069194 0.000000
vn 0.072196 0.069194 0.000000
vn 0.066067 0.075067 0.000000
vn 0.066067 0.075067 0.000000
vn 0.059463 0.080400 0.000000
vn 0.059463 0.080400 0.000000
vn 0.052431 0.085153 0.000000
vn 0.052431 0.085153 0.000000
vn 0.045020 0.089293 0.000000
vn 0.045020 0.089293 0.000000
vn 0.037286 0.092789 0.000000
vn 0.037286 0.092789 0.000000
vn 0.029282 0.095617 0.000000
vn 0.029282 0.095617 0.000000
vn 0.021068 0.097756 0.000000
vn 0.021068 0.097756 0.000000
vn 0.012702 0.099190 0.000000
vn 0.012702 0.099190 0.000000
vn 0.004244 0.099910 0.000000
vn 0.004244 0.099910 0.000000
vn -0.004244 0.099910 0.000000
vn -0.004244 0.099910 0.000000
vn -0.012702 0.099190 0.000000
vn -0.012702 0.099190 0.000000
vn -0.021068 0.097756 0.000000
vn -0.021068 0.097756 0.000000
vn -0.029282 0.095617 0.000000
vn -0.029282 0.095617 0.000000
vn -0.037286 0.092789 0.000000
vn -0.037286 0.092789 0.000000
vn -0.045020 0.089293 0.000000
vn -0.045020 0.089293 0.000000
vn -0.052431 0.085153 0.000000
vn -0.052431 0.085153 0.000000
vn -0.059463 0.080400 0.000000
vn -0.059463 0.080400 0.000000
vn -0.066067 0.075067 0.000000
vn -0.066067 0.075067 0.000000
vn -0.072196 0.069194 0.000000
vn -0.072196 0.069194 0.000000
vn -0.077804 0.062822 0.000000
vn -0.077804 0.062822 0.000000
vn -0.082851 0.055997 0.000000
vn -0.082851 0.055997 0.000000
vn -0.087301 0.048769 0.000000
vn -0.087301 0.048769 0.000000
vn -0.091123 0.041190 0.000000
vn -0.091123 0.041190 0.000000
vn -0.094288 0.033314 0.000000
vn -0.094288 0.033314 0.000000
vn -0.096773 0.025198 0.000000
vn -0.096773 0.025198 0.000000
vn -0.098562 0.016900 0.000000
vn -0.098562 0.016900 0.000000
vn -0.099640 0.008481 0.000000
vn -0.099640 0.008481 0.000000
vn -0.100000 0.000000 0.000000
vn -0.100000 0.000000 0.000000
vn -0.099640 -0.008481 0.000000
vn -0.099640 -0.008481 0.000000
vn -0.098562 -0.016900 0.000000
vn -0.098562 -0.016900 0.000000
vn -0.096773 -0.025198 0.000000
vn -0.096773 -0.025198 0.000000
vn -0.094288 -0.033314 0.000000
vn -0.094288 -0.033314 0.000000
vn -0.091123 -0.041190 0.000000
vn -0.091123 -0.041190 0.000000
vn -0.087301 -0.048769 0.000000
vn -0.087301 -0.048769 0.000000
vn -0.082851 -0.055997 0.000000
vn -0.082851 -0.055997 0.000000
vn -0.077804 -0.062822 0.000000
vn -0.077804 -0.062822 0.000000
vn -0.072196 -0.069194 0.000000
vn -0.072196 -0.069194 0.000000
vn -0.066067 -0.075067 0.000000
vn -0.066067 -0.075067 0.000000
vn -0.059463 -0.080400 0.000000
vn -0.059463 -0.080400 0.000000
vn -0.052431 -0.085153 0.000000
vn -0.052431 -0.085153 0.000000
vn -0.045020 -0.089293 0.000000
vn -0.045020 -0.089293 0.000000
vn -0.037286 -0.092789 0.000000
vn -0.037286 -0.092789 0.000000
vn -0.029282 -0.095617 0.000000
vn -0.029282 -0.095617 0.000000
vn -0.021068 -0.097756 0.000000
vn -0.021068 -0.097756 0.000000
vn -0.012702 -0.099190 0.000000
vn -0.012702 -0.099190 0.000000
vn -0.004244 -0.099910 0.000000
vn -0.004244 -0.099910 0.000000
vn 0.004244 -0.099910 0.000000
vn 0.004244 -0.099910 0.000000
vn 0.012702 -0.099190 0.000000
vn 0.012702 -0.099190 0.000000
vn 0.021068 -0.097756 0.000000
vn 0.021068 -0.097756 0.000000
vn 0.029282 -0.095617 0.000000
vn 0.029282 -0.095617 0.000000
vn 0.037286 -0.092789 0.000000
vn 0.037286 -0.092789 0.000000
vn 0.045020 -0.089293 0.000000
vn 0.045020 -0.089293 0.000000
vn 0.052431 -0.085153 0.000000
vn 0.052431 -0.085153 0.000000
vn 0.059463 -0.080400 0.000000
vn 0.059463 -0.080400 0.000000
vn 0.066067 -0.075067 0.000000
vn 0.066067 -0.075067 0.000000
vn 0.072196 -0.069194 0.000000
vn 0.072196 -0.069194 0.000000
vn 0.077804 -0.062822 0.000000
vn 0.077804 -0.062822 0.000000
vn 0.082851 -0.055997 0.000000
vn 0.082851 -0.055997 0.000000
vn 0.087301 -0.048769 0.000000
vn 0.087301 -0.048769 0.000000
vn 0.091123 -0.041190 0.000000
vn 0.091123 -0.041190 0.000000
vn 0.094288 -0.033314 0.000000
vn 0.094288 -0.033314 0.000000
vn 0.096773 -0.025198 0.000000
vn 0.096773 -0.025198 0.000000
vn 0.098562 -0.016900 0.000000
vn 0.098562 -0.016900 0.000000
vn 0.000000 0.100000 0.000000
vn 0.000000 0.100000 0.000000
vn 0.000000 0.100000 0.000000
vn 0.000000 0.100000 0.000000
vn -0.100000 0.000000 0.000000
vn -0.100000 0.000000 0.000000
vn -0.100000 0.000000 0.000000
vn -0.100000 0.000000 0.000000
vn 0.000000 -0.100000 0.000000
vn 0.000000 -0.100000 0.000000
vn 0.000000 -0.100000 0.000000
vn 0.000000 -0.100000 0.000000
vn 0.100000 -0.000000 0.000000
vn 0.100000 -0.000000 0.000000
vn 0.100000 -0.000000 0.000000
vn 0.100000 -0.000000 0.000000
vn 0.000000 0.000000 -0.100000
vn 0.000000 0.000000 -0.100000
vn 0.000000 0.000000 -0.100000
vn 0.000000 0.000000 -0.100000
vn 0.000000 0.000000 -0.100000
vn 0.000000 0.000000 -0.100000
vn 0.000000 0.000000 -0.100000
vn 0.000000 0.000000 -0.100000
vn 0.000000 0.000000 -0.100000
vn 0.000000 0.000000 -0.100000
vn 0.000000 0.000000 -0.100000
vn 0.000000 0.000000 -0.100000
vn 0.000000 0.000000 -0.100000
vn 0.000000 0.000000 -0.100000
vn 0.000000 0.000000 -0.100000
vn 0.000000 0.000000 -0.100000
vn 0.000000 0.000000 -0.100000
vn 0.000000 0.000000 -0.100000
vn 0.000000 0.000000 -0.100000
vn 0.000000 0.000000 -0.100000
vn 0.000000 0.000000 -0.100000
vn 0.000000 0.000000 -0.100000
vn 0.000000 0.000000 -0.100000
vn 0.000000 0.000000 -0.100000
vn 0.000000 0.000000 -0.100000
vn 0.000000 0.000000 -0.100000
vn 0.000000 0.000000 -0.100000
vn 0.000000 0.000000 -0.100000
vn 0.000000 0.000000 -0.100000
vn 0.000000 0.000000 -0.100000
vn 0.000000 0.000000 -0.100000
vn 0.000000 0.000000 -0.100000
vn 0.000000 0.000000 -0.100000
vn 0.000000 0.000000 -0.100000
vn 0.000000 0.000000 -0.100000
vn 0.000000 0.000000 -0.100000
vn 0.000000 0.000000 -0.100000
vn 0.000000 0.000000 -0.100000
vn 0.000000 0.000000 -0.100000
vn 0.000000 0.000000 -0.100000
vn 0.000000 0.000000 -0.100000
vn 0.000000 0.000000 -0.100000
vn 0.000000 0.000000 -0.100000
vn 0.000000 0.000000 -0.100000
vn 0.000000 0.000000 -0.100000
vn 0.000000 0.000000 -0.100000
vn 0.000000 0.000000 -0.100000
vn 0.000000 0.000000 -0.100000
vn 0.000000 0.000000 -0.100000
vn 0.000000 0.000000 -0.100000
vn 0.000000 0.000000 -0.100000
vn 0.000000 0.000000 -0.100000
vn 0.000000 0.000000 -0.100000
vn 0.000000 0.000000 -0.100000
vn 0.000000 0.000000 -0.100000
vn 0.000000 0.000000 -0.100000
vn 0.000000 0.000000 -0.100000
vn 0.000000 0.000000 -0.100000
vn 0.000000 0.000000 -0.100000
vn 0.000000 0.000000 -0.100000
vn 0.000000 0.000000 -0.100000
vn 0.000000 0.000000 -0.100000
vn 0.000000 0.000000 -0.100000
vn 0.000000 0.000000 -0.100000
vn 0.000000 0.000000 -0.100000
vn 0.000000 0.000000 -0.100000
vn 0.000000 0.000000 -0.100000
vn 0.000000 0.000000 -0.100000
vn 0.000000 0.000000 -0.100000
vn 0.000000 0.000000 -0.100000
vn 0.000000 0.000000 -0.100000
vn 0.000000 0.000000 -0.100000
vn 0.000000 0.000000 -0.100000
vn 0.000000 0.000000 -0.100000
vn 0.000000 0.000000 -0.100000
vn 0.000000 0.000000 -0.100000
vn 0.000000 0.000000 -0.100000
vn 0.000000 0.000000 -0.100000
vn 0.000000 0.000000 -0.100000
vn 0.000000 0.000000 -0.100000
vn 0.000000 0.000000 -0.100000
vn 0.000000 0.000000 -0.100000
vn 0.000000 0.000000 -0.100000
vn 0.000000 0.000000 -0.100000
vn 0.000000 0.000000 -0.100000
vn 0.000000 0.000000 -0.100000
vn 0.000000 0.000000 -0.100000
vn 0.000000 0.000000 -0.100000
vn 0.000000 0.000000 -0.100000
vn 0.000000 0.000000 -0.100000
vn 0.000000 0.000000 -0.100000
vn 0.000000 0.000000 -0.100000
vn 0.000000 0.000000 -0.100000
vn 0.000000 0.000000 -0.100000
vn 0.000000 0.000000 -0.100000
vn 0.000000 0.000000 -0.100000
vn 0.000000 0.000000 -0.100000
vn 0.000000 0.000000 -0.100000
vn 0.000000 0.000000 -0.100000
vn 0.000000 0.000000 -0.100000
vn 0.000000 0.000000 -0.100000
vn 0.000000 0.000000 -0.100000
vn 0.000000 0.000000 -0.100000
vn 0.000000 0.000000 -0.100000
vn 0.000000 0.000000 -0.100000
vn 0.000000 0.000000 -0.100000
vn 0.000000 0.000000 -0.100000
vn 0.000000 0.000000 -0.100000
vn 0.000000 0.000000 -0.100000
vn 0.000000 0.000000 -0.100000
vn 0.000000 0.000000 -0.100000
vn 0.000000 0.000000 -0.100000
vn 0.000000 0.000000 -0.100000
vn 0.000000 0.000000 -0.100000
vn 0.000000 0.000000 -0.100000
vn 0.000000 0.000000 -0.100000
vn 0.000000 0.000000 -0.100000
vn 0.000000 0.000000 -0.100000
vn 0.000000 0.000000 -0.100000
vn 0.000000 0.000000 -0.100000
vn 0.000000 0.000000 -0.100000
vn 0.000000 0.000000 -0.100000
vn 0.000000 0.000000 -0.100000
vn 0.000000 0.000000 -0.100000
vn 0.000000 0.000000 -0.100000
vn 0.000000 0.000000 -0.100000
vn 0.000000 0.000000 -0.100000
vn 0.000000 0.000000 -0.100000
vn 0.000000 0.000000 -0.100000
vn 0.000000 0.000000 -0.100000
vn 0.000000 0.000000 -0.100000
vn 0.000000 0.000000 -0.100000
vn 0.000000 0.000000 -0.100000
vn 0.000000 0.000000 -0.100000
vn 0.000000 0.000000 -0.100000
vn 0.000000 0.000000 -0.100000
vn 0.000000 0.000000 -0.100000
vn 0.000000 0.000000 -0.100000
vn 0.000000 0.000000 -0.100000
vn 0.000000 0.000000 -0.100000
vn 0.000000 0.000000 -0.100000
vn 0.000000 0.000000 -0.100000
vn 0.000000 0.000000 -0.100000
vn 0.000000 0.000000 -0.100000
vn 0.000000 0.000000 -0.100000
vn 0.000000 0.000000 -0.100000
vn 0.000000 0.000000 -0.100000
vn 0.000000 0.000000 -0.100000
vn 0.000000 0.000000 -0.100000
vn 0.000000 0.000000 -0.100000
vn 0.000000 0.000000 -0.100000
vn 0.000000 0.000000 -0.100000
vn 0.000000 0.000000 0.100000
vn 0.000000 0.000000 0.100000
vn 0.000000 0.000000 0.100000
vn 0.000000 0.000000 0.100000
vn 0.000000 0.000000 0.100000
vn 0.000000 0.000000 0.100000
vn 0.000000 0.000000 0.100000
vn 0.000000 0.000000 0.100000
vn 0.000000 0.000000 0.100000
vn 0.000000 0.000000 0.100000
vn 0.000000 0.000000 0.100000
vn 0.000000 0.000000 0.100000
vn 0.000000 0.000000 0.100000
vn 0.000000 0.000000 0.100000
vn 0.000000 0.000000 0.100000
vn 0.000000 0.000000 0.100000
vn 0.000000 0.000000 0.100000
vn 0.000000 0.000000 0.100000
vn 0.000000 0.000000 0.100000
vn 0.000000 0.000000 0.100000
vn 0.000000 0.000000 0.100000
vn 0.000000 0.000000 0.100000
vn 0.000000 0.000000 0.100000
vn 0.000000 0.000000 0.100000
vn 0.000000 0.000000 0.100000
vn 0.000000 0.000000 0.100000
vn 0.000000 0.000000 0.100000
vn 0.000000 0.000000 0.100000
vn 0.000000 0.000000 0.100000
vn 0.000000 0.000000 0.100000
vn 0.000000 0.000000 0.100000
vn 0.000000 0.000000 0.100000
vn 0.000000 0.000000 0.100000
vn 0.000000 0.000000 0.100000
vn 0.000000 0.000000 0.100000
vn 0.000000 0.000000 0.100000
vn 0.000000 0.000000 0.100000
vn 0.000000 0.000000 0.100000
vn 0.000000 0.000000 0.100000
vn 0.000000 0.000000 0.100000
vn 0.000000 0.000000 0.100000
vn 0.000000 0.000000 0.100000
vn 0.000000 0.000000 0.100000
vn 0.000000 0.000000 0.100000
vn 0.000000 0.000000 0.100000
vn 0.000000 0.000000 0.100000
vn 0.000000 0.000000 0.100000
vn 0.000000 0.000000 0.100000
vn 0.000000 0.000000 0.100000
vn 0.000000 0.000000 0.100000
vn 0.000000 0.000000 0.100000
vn 0.000000 0.000000 0.100000
vn 0.000000 0.000000 0.100000
vn 0.000000 0.000000 0.100000
vn 0.000000 0.000000 0.100000
vn 0.000000 0.000000 0.100000
vn 0.000000 0.000000 0.100000
vn 0.000000 0.000000 0.100000
vn 0.000000 0.000000 0.100000
vn 0.000000 0.000000 0.100000
vn 0.000000 0.000000 0.100000
vn 0.000000 0.000000 0.100000
vn 0.000000 0.000000 0.100000
vn 0.000000 0.000000 0.100000
vn 0.000000 0.000000 0.100000
vn 0.000000 0.000000 0.100000
vn 0.000000 0.000000 0.100000
vn 0.000000 0.000000 0.100000
vn 0.000000 0.000000 0.100000
vn 0.000000 0.000000 0.100000
vn 0.000000 0.000000 0.100000
vn 0.000000 0.000000 0.100000
vn 0.000000 0.000000 0.100000
vn 0.000000 0.000000 0.100000
vn 0.000000 0.000000 0.100000
vn 0.000000 0.000000 0.100000
vn 0.000000 0.000000 0.100000
vn 0.000000 0.000000 0.100000
vn 0.000000 0.000000 0.100000
vn 0.000000 0.000000 0.100000
vn 0.000000 0.000000 0.100000
vn 0.000000 0.000000 0.100000
vn 0.000000 0.000000 0.100000
vn 0.000000 0.000000 0.100000
vn 0.000000 0.000000 0.100000
vn 0.000000 0.000000 0.100000
vn 0.000000 0.000000 0.100000
vn 0.000000 0.000000 0.100000
vn 0.000000 0.000000 0.100000
vn 0.000000 0.000000 0.100000
vn 0.000000 0.000000 0.100000
vn 0.000000 0.000000 0.100000
vn 0.000000 0.000000 0.100000
vn 0.000000 0.000000 0.100000
vn 0.000000 0.000000 0.100000
vn 0.000000 0.000000 0.100000
vn 0.000000 0.000000 0.100000
vn 0.000000 0.000000 0.100000
vn 0.000000 0.000000 0.100000
vn 0.000000 0.000000 0.100000
vn 0.000000 0.000000 0.100000
vn 0.000000 0.000000 0.100000
vn 0.000000 0.000000 0.100000
vn 0.000000 0.000000 0.100000
vn 0.000000 0.000000 0.100000
vn 0.000000 0.000000 0.100000
vn 0.000000 0.000000 0.100000
vn 0.000000 0.000000 0.100000
vn 0.000000 0.000000 0.100000
vn 0.000000 0.000000 0.100000
vn 0.000000 0.000000 0.100000
vn 0.000000 0.000000 0.100000
vn 0.000000 0.000000 0.100000
vn 0.000000 0.000000 0.100000
vn 0.000000 0.000000 0.100000
vn 0.000000 0.000000 0.100000
vn 0.000000 0.000000 0.100000
vn 0.000000 0.000000 0.100000
vn 0.000000 0.000000 0.100000
vn 0.000000 0.000000 0.100000
vn 0.000000 0.000000 0.100000
vn 0.000000 0.000000 0.100000
vn 0.000000 0.000000 0.100000
vn 0.000000 0.000000 0.100000
vn 0.000000 0.000000 0.100000
vn 0.000000 0.000000 0.100000
vn 0.000000 0.000000 0.100000
vn 0.000000 0.000000 0.100000
vn 0.000000 0.000000 0.100000
vn 0.000000 0.000000 0.100000
vn 0.000000 0.000000 0.100000
vn 0.000000 0.000000 0.100000
vn 0.000000 0.000000 0.100000
vn 0.000000 0.000000 0.100000
vn 0.000000 0.000000 0.100000
vn 0.000000 0.000000 0.100000
vn 0.000000 0.000000 0.100000
vn 0.000000 0.000000 0.100000
vn 0.000000 0.000000 0.100000
vn 0.000000 0.000000 0.100000
vn 0.000000 0.000000 0.100000
vn 0.000000 0.000000 0.100000
vn 0.000000 0.000000 0.100000
vn 0.000000 0.000000 0.100000
vn 0.000000 0.000000 0.100000
vn 0.000000 0.000000 0.100000
vn 0.000000 0.000000 0.100000
vn 0.000000 0.000000 0.100000
vn 0.000000 0.000000 0.100000
vn 0.000000 0.000000 0.100000
vn 0.000000 0.000000 0.100000
vn 0.000000 0.000000 0.100000
usemtl Steel_-_Satin
f 2/1/1 148/2/2 1/3/3
f 1/3/3 148/2/2 75/4/4
f 1/5/3 75/6/4 74/7/5
f 74/7/5 75/6/4 76/8/6
f 74/7/5 76/8/6 73/9/7
f 73/9/7 76/8/6 77/10/8
f 73/9/7 77/10/8 72/11/9
f 72/11/9 77/10/8 78/12/10
f 72/11/9 78/12/10 71/13/11
f 71/13/11 78/12/10 79/14/12
f 71/13/11 79/14/12 70/15/13
f 70/15/13 79/14/12 80/16/14
f 70/15/13 80/16/14 69/17/15
f 69/17/15 80/16/14 81/18/16
f 69/17/15 81/18/16 68/19/17
f 68/19/17 81/18/16 82/20/18
f 68/19/17 82/20/18 67/21/19
f 67/21/19 82/20/18 83/22/20
f 67/21/19 83/22/20 66/23/21
f 66/23/21 83/22/20 84/24/22
f 66/23/21 84/24/22 65/25/23
f 65/25/23 84/24/22 85/26/24
f 65/25/23 85/26/24 64/27/25
f 64/27/25 85/26/24 86/28/26
f 64/27/25 86/28/26 63/29/27
f 63/29/27 86/28/26 87/30/28
f 63/29/27 87/30/28 62/31/29
f 62/31/29 87/30/28 88/32/30
f 62/31/29 88/32/30 61/33/31
f 61/33/31 88/32/30 89/34/32
f 61/33/31 89/34/32 60/35/33
f 60/35/33 89/34/32 90/36/34
f 60/35/33 90/36/34 59/37/35
f 59/37/35 90/36/34 91/38/36
f 59/37/35 91/38/36 58/39/37
f 58/39/37 91/38/36 92/40/38
f 58/39/37 92/40/38 57/41/39
f 57/41/39 92/40/38 93/42/40
f 57/41/39 93/42/40 56/43/41
f 56/43/41 93/42/40 94/44/42
f 56/43/41 94/44/42 55/45/43
f 55/45/43 94/44/42 95/46/44
f 55/45/43 95/46/44 54/47/45
f 54/47/45 95/46/44 96/48/46
f 54/47/45 96/48/46 53/49/47
f 53/49/47 96/48/46 97/50/48
f 53/49/47 97/50/48 52/51/49
f 52/51/49 97/50/48 98/52/50
f 52/51/49 98/52/50 51/53/51
f 51/53/51 98/52/50 99/54/52
f 51/53/51 99/54/52 50/55/53
f 50/55/53 99/54/52 100/56/54
f 50/55/53 100/56/54 49/57/55
f 49/57/55 100/56/54 101/58/56
f 49/57/55 101/58/56 48/59/57
f 48/59/57 101/58/56 102/60/58
f 48/59/57 102/60/58 47/61/59
f 47/61/59 102/60/58 103/62/60
f 47/61/59 103/62/60 46/63/61
f 46/63/61 103/62/60 104/64/62
f 46/63/61 104/64/62 45/65/63
f 45/65/63 104/64/62 105/66/64
f 45/65/63 105/66/64 44/67/65
f 44/67/65 105/66/64 106/68/66
f 44/67/65 106/68/66 43/69/67
f 43/69/67 106/68/66 107/70/68
f 43/69/67 107/70/68 42/71/69
f 42/71/69 107/70/68 108/72/70
f 42/71/69 108/72/70 41/73/71
f 41/73/71 108/72/70 109/74/72
f 41/73/71 109/74/72 40/75/73
f 40/75/73 109/74/72 110/76/74
f 40/75/73 110/76/74 39/77/75
f 39/77/75 110/76/74 111/78/76
f 39/77/75 111/78/76 38/79/77
f 38/79/77 111/78/76 112/80/78
f 38/79/77 112/80/78 37/81/79
f 37/81/79 112/80/78 113/82/80
f 37/81/79 113/82/80 36/83/81
f 36/83/81 113/82/80 114/84/82
f 36/83/81 114/84/82 35/85/83
f 35/85/83 114/84/82 115/86/84
f 35/85/83 115/86/84 34/87/85
f 34/87/85 115/86/84 116/88/86
f 34/87/85 116/88/86 33/89/87
f 33/89/87 116/88/86 117/90/88
f 33/89/87 117/90/88 32/91/89
f 32/91/89 117/90/88 118/92/90
f 32/91/89 118/92/90 31/93/91
f 31/93/91 118/92/90 119/94/92
f 31/93/91 119/94/92 30/95/93
f 30/95/93 119/94/92 120/96/94
f 30/95/93 120/96/94 29/97/95
f 29/97/95 120/96/94 121/98/96
f 29/97/95 121/98/96 28/99/97
f 28/99/97 121/98/96 122/100/98
f 28/99/97 122/100/98 27/101/99
f 27/101/99 122/100/98 123/102/100
f 27/101/99 123/102/100 26/103/101
f 26/103/101 123/102/100 124/104/102
f 26/103/101 124/104/102 25/105/103
f 25/105/103 124/104/102 125/106/104
f 25/105/103 125/106/104 24/107/105
f 24/107/105 125/106/104 126/108/106
f 24/107/105 126/108/106 23/109/107
f 23/109/107 126/108/106 127/110/108
f 23/109/107 127/110/108 22/111/109
f 22/111/109 127/110/108 128/112/110
f 22/111/109 128/112/110 21/113/111
f 21/113/111 128/112/110 129/114/112
f 21/113/111 129/114/112 20/115/113
f 20/115/113 129/114/112 130/116/114
f 20/115/113 130/116/114 19/117/115
f 19/117/115 130/116/114 131/118/116
f 19/117/115 131/118/116 18/119/117
f 18/119/117 131/118/116 132/120/118
f 18/119/117 132/120/118 17/121/119
f 17/121/119 132/120/118 133/122/120
f 17/121/119 133/122/120 16/123/121
f 16/123/121 133/122/120 134/124/122
f 16/123/121 134/124/122 15/125/123
f 15/125/123 134/124/122 135/126/124
f 15/125/123 135/126/124 14/127/125
f 14/127/125 135/126/124 136/128/126
f 14/127/125 136/128/126 13/129/127
f 13/129/127 136/128/126 137/130/128
f 13/129/127 137/130/128 12/131/129
f 12/131/129 137/130/128 138/132/130
f 12/131/129 138/132/130 11/133/131
f 11/133/131 138/132/130 139/134/132
f 11/133/131 139/134/132 10/135/133
f 10/135/133 139/134/132 140/136/134
f 10/135/133 140/136/134 9/137/135
f 9/137/135 140/136/134 141/138/136
f 9/137/135 141/138/136 8/139/137
f 8/139/137 141/138/136 142/140/138
f 8/139/137 142/140/138 7/141/139
f 7/141/139 142/140/138 143/142/140
f 7/141/139 143/142/140 6/143/141
f 6/143/141 143/142/140 144/144/142
f 6/143/141 144/144/142 5/145/143
f 5/145/143 144/144/142 145/146/144
f 5/145/143 145/146/144 4/147/145
f 4/147/145 145/146/144 146/148/146
f 4/147/145 146/148/146 3/149/147
f 3/149/147 146/148/146 147/150/148
f 3/149/147 147/150/148 2/1/1
f 2/1/1 147/150/148 148/2/2
f 150/151/149 296/152/150 149/153/151
f 149/153/151 296/152/150 223/154/152
f 149/155/151 223/156/152 222/157/153
f 222/157/153 223/156/152 224/158/154
f 222/157/153 224/158/154 221/159/155
f 221/159/155 224/158/154 225/160/156
f 221/159/155 225/160/156 220/161/157
f 220/161/157 225/160/156 226/162/158
f 220/161/157 226/162/158 219/163/159
f 219/163/159 226/162/158 227/164/160
f 219/163/159 227/164/160 218/165/161
f 218/165/161 227/164/160 228/166/162
f 218/165/161 228/166/162 217/167/163
f 217/167/163 228/166/162 229/168/164
f 217/167/163 229/168/164 216/169/165
f 216/169/165 229/168/164 230/170/166
f 216/169/165 230/170/166 215/171/167
f 215/171/167 230/170/166 231/172/168
f 215/171/167 231/172/168 214/173/169
f 214/173/169 231/172/168 232/174/170
f 214/173/169 232/174/170 213/175/171
f 213/175/171 232/174/170 233/176/172
f 213/175/171 233/176/172 212/177/173
f 212/177/173 233/176/172 234/178/174
f 212/177/173 234/178/174 211/179/175
f 211/179/175 234/178/174 235/180/176
f 211/179/175 235/180/176 210/181/177
f 210/181/177 235/180/176 236/182/178
f 210/181/177 236/182/178 209/183/179
f 209/183/179 236/182/178 237/184/180
f 209/183/179 237/184/180 208/185/181
f 208/185/181 237/184/180 238/186/182
f 208/185/181 238/186/182 207/187/183
f 207/187/183 238/186/182 239/188/184
f 207/187/183 239/188/184 206/189/185
f 206/189/185 239/188/184 240/190/186
f 206/189/185 240/190/186 205/191/187
f 205/191/187 240/190/186 241/192/188
f 205/191/187 241/192/188 204/193/189
f 204/193/189 241/192/188 242/194/190
f 204/193/189 242/194/190 203/195/191
f 203/195/191 242/194/190 243/196/192
f 203/195/191 243/196/192 202/197/193
f 202/197/193 243/196/192 244/198/194
f 202/197/193 244/198/194 201/199/195
f 201/199/195 244/198/194 245/200/196
f 201/199/195 245/200/196 200/201/197
f 200/201/197 245/200/196 246/202/198
f 200/201/197 246/202/198 199/203/199
f 199/203/199 246/202/198 247/204/200
f 199/203/199 247/204/200 198/205/201
f 198/205/201 247/204/200 248/206/202
f 198/205/201 248/206/202 197/207/203
f 197/207/203 248/206/202 249/208/204
f 197/207/203 249/208/204 196/209/205
f 196/209/205 249/208/204 250/210/206
f 196/209/205 250/210/206 195/211/207
f 195/211/207 250/210/206 251/212/208
f 195/211/207 251/212/208 194/213/209
f 194/213/209 251/212/208 252/214/210
f 194/213/209 252/214/210 193/215/211
f 193/215/211 252/214/210 253/216/212
f 193/215/211 253/216/212 192/217/213
f 192/217/213 253/216/212 254/218/214
f 192/217/213 254/218/214 191/219/215
f 191/219/215 254/218/214 255/220/216
f 191/219/215 255/220/216 190/221/217
f 190/221/217 255/220/216 256/222/218
f 190/221/217 256/222/218 189/223/219
f 189/223/219 256/222/218 257/224/220
f 189/223/219 257/224/220 188/225/221
f 188/225/221 257/224/220 258/226/222
f 188/225/221 258/226/222 187/227/223
f 187/227/223 258/226/222 259/228/224
f 187/227/223 259/228/224 186/229/225
f 186/229/225 259/228/224 260/230/226
f 186/229/225 260/230/226 185/231/227
f 185/231/227 260/230/226 261/232/228
f 185/231/227 261/232/228 184/233/229
f 184/233/229 261/232/228 262/234/230
f 184/233/229 262/234/230 183/235/231
f 183/235/231 262/234/230 263/236/232
f 183/235/231 263/236/232 182/237/233
f 182/237/233 263/236/232 264/238/234
f 182/237/233 264/238/234 181/239/235
f 181/239/235 264/238/234 265/240/236
f 181/239/235 265/240/236 180/241/237
f 180/241/237 265/240/236 266/242/238
f 180/241/237 266/242/238 179/243/239
f 179/243/239 266/242/238 267/244/240
f 179/243/239 267/244/240 178/245/241
f 178/245/241 267/244/240 268/246/242
f 178/245/241 268/246/242 177/247/243
f 177/247/243 268/246/242 269/248/244
f 177/247/243 269/248/244 176/249/245
f 176/249/245 269/248/244 270/250/246
f 176/249/245 270/250/246 175/251/247
f 175/251/247 270/250/246 271/252/248
f 175/251/247 271/252/248 174/253/249
f 174/253/249 271/252/248 272/254/250
f 174/253/249 272/254/250 173/255/251
f 173/255/251 272/254/250 273/256/252
f 173/255/251 273/256/252 172/257/253
f 172/257/253 273/256/252 274/258/254
f 172/257/253 274/258/254 171/259/255
f 171/259/255 274/258/254 275/260/256
f 171/259/255 275/260/256 170/261/257
f 170/261/257 275/260/256 276/262/258
f 170/261/257 276/262/258 169/263/259
f 169/263/259 276/262/258 277/264/260
f 169/263/259 277/264/260 168/265/261
f 168/265/261 277/264/260 278/266/262
f 168/265/261 278/266/262 167/267/263
f 167/267/263 278/266/262 279/268/264
f 167/267/263 279/268/264 166/269/265
f 166/269/265 279/268/264 280/270/266
f 166/269/265 280/270/266 165/271/267
f 165/271/267 280/270/266 281/272/268
f 165/271/267 281/272/268 164/273/269
f 164/273/269 281/272/268 282/274/270
f 164/273/269 282/274/270 163/275/271
f 163/275/271 282/274/270 283/276/272
f 163/275/271 283/276/272 162/277/273
f 162/277/273 283/276/272 284/278/274
f 162/277/273 284/278/274 161/279/275
f 161/279/275 284/278/274 285/280/276
f 161/279/275 285/280/276 160/281/277
f 160/281/277 285/280/276 286/282/278
f 160/281/277 286/282/278 159/283/279
f 159/283/279 286/282/278 287/284/280
f 159/283/279 287/284/280 158/285/281
f 158/285/281 287/284/280 288/286/282
f 158/285/281 288/286/282 157/287/283
f 157/287/283 288/286/282 289/288/284
f 157/287/283 289/288/284 156/289/285
f 156/289/285 289/288/284 290/290/286
f 156/289/285 290/290/286 155/291/287
f 155/291/287 290/290/286 291/292/288
f 155/291/287 291/292/288 154/293/289
f 154/293/289 291/292/288 292/294/290
f 154/293/289 292/294/290 153/295/291
f 153/295/291 292/294/290 293/296/292
f 153/295/291 293/296/292 152/297/293
f 152/297/293 293/296/292 294/298/294
f 152/297/293 294/298/294 151/299/295
f 151/299/295 294/298/294 295/300/296
f 151/299/295 295/300/296 150/151/149
f 150/151/149 295/300/296 296/152/150
f 297/301/297 298/302/298 300/303/299
f 300/303/299 298/302/298 299/304/300
f 301/305/301 297/306/302 302/307/303
f 302/307/303 297/306/302 300/308/304
f 303/309/305 301/310/306 304/311/307
f 304/311/307 301/310/306 302/312/308
f 298/313/309 303/314/310 299/315/311
f 299/315/311 303/314/310 304/316/312
f 304/317/313 183/318/314 299/319/315
f 299/319/315 183/318/314 182/320/316
f 299/319/315 182/320/316 41/321/317
f 41/321/317 182/320/316 181/322/318
f 41/321/317 181/322/318 42/323/319
f 42/323/319 181/322/318 180/324/320
f 42/323/319 180/324/320 43/325/321
f 43/325/321 180/324/320 179/326/322
f 43/325/321 179/326/322 44/327/323
f 44/327/323 179/326/322 178/328/324
f 44/327/323 178/328/324 45/329/325
f 45/329/325 178/328/324 177/330/326
f 45/329/325 177/330/326 46/331/327
f 46/331/327 177/330/326 176/332/328
f 46/331/327 176/332/328 47/333/329
f 47/333/329 176/332/328 175/334/330
f 47/333/329 175/334/330 174/335/331
f 302/336/332 204/337/333 304/317/313
f 304/317/313 204/337/333 203/338/334
f 304/317/313 203/338/334 202/339/335
f 300/340/336 72/341/337 302/336/332
f 302/336/332 72/341/337 71/342/338
f 302/336/332 71/342/338 152/343/339
f 152/343/339 71/342/338 70/344/340
f 152/343/339 70/344/340 153/345/341
f 153/345/341 70/344/340 69/346/342
f 153/345/341 69/346/342 154/347/343
f 154/347/343 69/346/342 68/348/344
f 154/347/343 68/348/344 155/349/345
f 155/349/345 68/348/344 67/350/346
f 155/349/345 67/350/346 156/351/347
f 156/351/347 67/350/346 66/352/348
f 156/351/347 66/352/348 157/353/349
f 157/353/349 66/352/348 65/354/350
f 157/353/349 65/354/350 158/355/351
f 158/355/351 65/354/350 64/356/352
f 158/355/351 64/356/352 63/357/353
f 299/319/315 20/358/354 300/340/336
f 300/340/336 20/358/354 19/359/355
f 300/340/336 19/359/355 18/360/356
f 150/361/357 149/362/358 302/336/332
f 302/336/332 149/362/358 222/363/359
f 302/336/332 222/363/359 221/364/360
f 221/364/360 220/365/361 302/336/332
f 302/336/332 220/365/361 219/366/362
f 302/336/332 219/366/362 218/367/363
f 218/367/363 217/368/364 302/336/332
f 302/336/332 217/368/364 216/369/365
f 302/336/332 216/369/365 215/370/366
f 215/370/366 214/371/367 302/336/332
f 302/336/332 214/371/367 213/372/368
f 302/336/332 213/372/368 212/373/369
f 212/373/369 211/374/370 302/336/332
f 302/336/332 211/374/370 210/375/371
f 302/336/332 210/375/371 209/376/372
f 209/376/372 208/377/373 302/336/332
f 302/336/332 208/377/373 207/378/374
f 302/336/332 207/378/374 206/379/375
f 206/379/375 205/380/376 302/336/332
f 302/336/332 205/380/376 204/337/333
f 202/339/335 201/381/377 304/317/313
f 304/317/313 201/381/377 200/382/378
f 304/317/313 200/382/378 199/383/379
f 199/383/379 198/384/380 304/317/313
f 304/317/313 198/384/380 197/385/381
f 304/317/313 197/385/381 196/386/382
f 196/386/382 195/387/383 304/317/313
f 304/317/313 195/387/383 194/388/384
f 304/317/313 194/388/384 193/389/385
f 193/389/385 192/390/386 304/317/313
f 304/317/313 192/390/386 191/391/387
f 304/317/313 191/391/387 190/392/388
f 190/392/388 189/393/389 304/317/313
f 304/317/313 189/393/389 188/394/390
f 304/317/313 188/394/390 187/395/391
f 187/395/391 186/396/392 304/317/313
f 304/317/313 186/396/392 185/397/393
f 304/317/313 185/397/393 184/398/394
f 184/398/394 183/318/314 304/317/313
f 47/333/329 174/335/331 48/399/395
f 48/399/395 174/335/331 173/400/396
f 48/399/395 173/400/396 49/401/397
f 49/401/397 173/400/396 172/402/398
f 49/401/397 172/402/398 50/403/399
f 50/403/399 172/402/398 171/404/400
f 50/403/399 171/404/400 51/405/401
f 51/405/401 171/404/400 170/406/402
f 51/405/401 170/406/402 52/407/403
f 52/407/403 170/406/402 169/408/404
f 52/407/403 169/408/404 53/409/405
f 53/409/405 169/408/404 168/410/406
f 53/409/405 168/410/406 54/411/407
f 54/411/407 168/410/406 167/412/408
f 54/411/407 167/412/408 55/413/409
f 55/413/409 167/412/408 166/414/410
f 55/413/409 166/414/410 56/415/411
f 56/415/411 166/414/410 165/416/412
f 56/415/411 165/416/412 57/417/413
f 57/417/413 165/416/412 164/418/414
f 57/417/413 164/418/414 58/419/415
f 58/419/415 164/418/414 163/420/416
f 58/419/415 163/420/416 59/421/417
f 59/421/417 163/420/416 162/422/418
f 59/421/417 162/422/418 60/423/419
f 60/423/419 162/422/418 161/424/420
f 60/423/419 161/424/420 61/425/421
f 61/425/421 161/424/420 160/426/422
f 61/425/421 160/426/422 62/427/423
f 62/427/423 160/426/422 159/428/424
f 62/427/423 159/428/424 63/357/353
f 63/357/353 159/428/424 158/355/351
f 152/343/339 151/429/425 302/336/332
f 302/336/332 151/429/425 150/361/357
f 2/430/426 1/431/427 300/340/336
f 300/340/336 1/431/427 74/432/428
f 300/340/336 74/432/428 73/433/429
f 73/433/429 72/341/337 300/340/336
f 41/321/317 40/434/430 299/319/315
f 299/319/315 40/434/430 39/435/431
f 299/319/315 39/435/431 38/436/432
f 38/436/432 37/437/433 299/319/315
f 299/319/315 37/437/433 36/438/434
f 299/319/315 36/438/434 35/439/435
f 35/439/435 34/440/436 299/319/315
f 299/319/315 34/440/436 33/441/437
f 299/319/315 33/441/437 32/442/438
f 32/442/438 31/443/439 299/319/315
f 299/319/315 31/443/439 30/444/440
f 299/319/315 30/444/440 29/445/441
f 29/445/441 28/446/442 299/319/315
f 299/319/315 28/446/442 27/447/443
f 299/319/315 27/447/443 26/448/444
f 26/448/444 25/449/445 299/319/315
f 299/319/315 25/449/445 24/450/446
f 299/319/315 24/450/446 23/451/447
f 23/451/447 22/452/448 299/319/315
f 299/319/315 22/452/448 21/453/449
f 299/319/315 21/453/449 20/358/354
f 18/360/356 17/454/450 300/340/336
f 300/340/336 17/454/450 16/455/451
f 300/340/336 16/455/451 15/456/452
f 15/456/452 14/457/453 300/340/336
f 300/340/336 14/457/453 13/458/454
f 300/340/336 13/458/454 12/459/455
f 12/459/455 11/460/456 300/340/336
f 300/340/336 11/460/456 10/461/457
f 300/340/336 10/461/457 9/462/458
f 9/462/458 8/463/459 300/340/336
f 300/340/336 8/463/459 7/464/460
f 300/340/336 7/464/460 6/465/461
f 6/465/461 5/466/462 300/340/336
f 300/340/336 5/466/462 4/467/463
f 300/340/336 4/467/463 3/468/464
f 3/468/464 2/430/426 300/340/336
f 298/469/465 263/470/466 303/471/467
f 303/471/467 263/470/466 262/472/468
f 303/471/467 262/472/468 261/473/469
f 297/474/470 130/475/471 298/469/465
f 298/469/465 130/475/471 129/476/472
f 298/469/465 129/476/472 128/477/473
f 301/478/474 78/479/475 297/474/470
f 297/474/470 78/479/475 77/480/476
f 297/474/470 77/480/476 76/481/477
f 303/471/467 241/482/478 301/478/474
f 301/478/474 241/482/478 240/483/479
f 301/478/474 240/483/479 239/484/480
f 224/485/481 223/486/482 301/478/474
f 301/478/474 223/486/482 296/487/483
f 301/478/474 296/487/483 295/488/484
f 295/488/484 294/489/485 301/478/474
f 301/478/474 294/489/485 79/490/486
f 301/478/474 79/490/486 78/479/475
f 79/490/486 294/489/485 80/491/487
f 80/491/487 294/489/485 293/492/488
f 80/491/487 293/492/488 81/493/489
f 81/493/489 293/492/488 292/494/490
f 81/493/489 292/494/490 82/495/491
f 82/495/491 292/494/490 291/496/492
f 82/495/491 291/496/492 83/497/493
f 83/497/493 291/496/492 290/498/494
f 83/497/493 290/498/494 84/499/495
f 84/499/495 290/498/494 289/500/496
f 84/499/495 289/500/496 85/501/497
f 85/501/497 289/500/496 288/502/498
f 85/501/497 288/502/498 86/503/499
f 86/503/499 288/502/498 87/504/500
f 87/504/500 288/502/498 287/505/501
f 87/504/500 287/505/501 88/506/502
f 88/506/502 287/505/501 286/507/503
f 88/506/502 286/507/503 89/508/504
f 89/508/504 286/507/503 285/509/505
f 89/508/504 285/509/505 90/510/506
f 90/510/506 285/509/505 284/511/507
f 90/510/506 284/511/507 91/512/508
f 91/512/508 284/511/507 283/513/509
f 91/512/508 283/513/509 92/514/510
f 92/514/510 283/513/509 282/515/511
f 92/514/510 282/515/511 93/516/512
f 93/516/512 282/515/511 281/517/513
f 93/516/512 281/517/513 94/518/514
f 94/518/514 281/517/513 280/519/515
f 94/518/514 280/519/515 95/520/516
f 95/520/516 280/519/515 279/521/517
f 95/520/516 279/521/517 96/522/518
f 96/522/518 279/521/517 278/523/519
f 96/522/518 278/523/519 97/524/520
f 97/524/520 278/523/519 277/525/521
f 97/524/520 277/525/521 98/526/522
f 98/526/522 277/525/521 276/527/523
f 98/526/522 276/527/523 99/528/524
f 99/528/524 276/527/523 275/529/525
f 99/528/524 275/529/525 100/530/526
f 100/530/526 275/529/525 274/531/527
f 100/530/526 274/531/527 101/532/528
f 101/532/528 274/531/527 273/533/529
f 101/532/528 273/533/529 102/534/530
f 102/534/530 273/533/529 272/535/531
f 102/534/530 272/535/531 103/536/532
f 103/536/532 272/535/531 271/537/533
f 103/536/532 271/537/533 270/538/534
f 103/536/532 270/538/534 104/539/535
f 104/539/535 270/538/534 269/540/536
f 104/539/535 269/540/536 105/541/537
f 105/541/537 269/540/536 268/542/538
f 105/541/537 268/542/538 106/543/539
f 106/543/539 268/542/538 267/544/540
f 106/543/539 267/544/540 107/545/541
f 107/545/541 267/544/540 266/546/542
f 107/545/541 266/546/542 108/547/543
f 108/547/543 266/546/542 265/548/544
f 108/547/543 265/548/544 109/549/545
f 109/549/545 265/548/544 264/550/546
f 109/549/545 264/550/546 298/469/465
f 298/469/465 264/550/546 263/470/466
f 261/473/469 260/551/547 303/471/467
f 303/471/467 260/551/547 259/552/548
f 303/471/467 259/552/548 258/553/549
f 258/553/549 257/554/550 303/471/467
f 303/471/467 257/554/550 256/555/551
f 303/471/467 256/555/551 255/556/552
f 255/556/552 254/557/553 303/471/467
f 303/471/467 254/557/553 253/558/554
f 303/471/467 253/558/554 252/559/555
f 252/559/555 251/560/556 303/471/467
f 303/471/467 251/560/556 250/561/557
f 303/471/467 250/561/557 249/562/558
f 249/562/558 248/563/559 303/471/467
f 303/471/467 248/563/559 247/564/560
f 303/471/467 247/564/560 246/565/561
f 246/565/561 245/566/562 303/471/467
f 303/471/467 245/566/562 244/567/563
f 303/471/467 244/567/563 243/568/564
f 243/568/564 242/569/565 303/471/467
f 303/471/467 242/569/565 241/482/478
f 239/484/480 238/570/566 301/478/474
f 301/478/474 238/570/566 237/571/567
f 301/478/474 237/571/567 236/572/568
f 236/572/568 235/573/569 301/478/474
f 301/478/474 235/573/569 234/574/570
f 301/478/474 234/574/570 233/575/571
f 233/575/571 232/576/572 301/478/474
f 301/478/474 232/576/572 231/577/573
f 301/478/474 231/577/573 230/578/574
f 230/578/574 229/579/575 301/478/474
f 301/478/474 229/579/575 228/580/576
f 301/478/474 228/580/576 227/581/577
f 227/581/577 226/582/578 301/478/474
f 301/478/474 226/582/578 225/583/579
f 301/478/474 225/583/579 224/485/481
f 76/481/477 75/584/580 297/474/470
f 297/474/470 75/584/580 148/585/581
f 297/474/470 148/585/581 147/586/582
f 147/586/582 146/587/583 297/474/470
f 297/474/470 146/587/583 145/588/584
f 297/474/470 145/588/584 144/589/585
f 144/589/585 143/590/586 297/474/470
f 297/474/470 143/590/586 142/591/587
f 297/474/470 142/591/587 141/592/588
f 141/592/588 140/593/589 297/474/470
f 297/474/470 140/593/589 139/594/590
f 297/474/470 139/594/590 138/595/591
f 138/595/591 137/596/592 297/474/470
f 297/474/470 137/596/592 136/597/593
f 297/474/470 136/597/593 135/598/594
f 135/598/594 134/599/595 297/474/470
f 297/474/470 134/599/595 133/600/596
f 297/474/470 133/600/596 132/601/597
f 132/601/597 131/602/598 297/474/470
f 297/474/470 131/602/598 130/475/471
f 128/477/473 127/603/599 298/469/465
f 298/469/465 127/603/599 126/604/600
f 298/469/465 126/604/600 125/605/601
f 125/605/601 124/606/602 298/469/465
f 298/469/465 124/606/602 123/607/603
f 298/469/465 123/607/603 122/608/604
f 122/608/604 121/609/605 298/469/465
f 298/469/465 121/609/605 120/610/606
f 298/469/465 120/610/606 119/611/607
f 119/611/607 118/612/608 298/469/465
f 298/469/465 118/612/608 117/613/609
f 298/469/465 117/613/609 116/614/610
f 116/614/610 115/615/611 298/469/465
f 298/469/465 115/615/611 114/616/612
f 298/469/465 114/616/612 113/617/613
f 113/617/613 112/618/614 298/469/465
f 298/469/465 112/618/614 111/619/615
f 298/469/465 111/619/615 110/620/616
f 110/620/616 109/549/545 298/469/465
# 304 vertices
# 620 texture params
# 616 normals
# 612 facets

# 1 groups
